mtllib Chopsticks.mtl
usemtl phong1SG
# Blender v2.78 (sub 0) OBJ File: ''
# www.blender.org
o Cylinder
v 0.000000 -0.126950 -0.002693
v 0.000921 -0.126950 -0.002531
v 0.001731 -0.126950 -0.002063
v 0.002332 -0.126950 -0.001347
v 0.002652 -0.126950 -0.000468
v 0.002652 -0.126950 0.000468
v 0.002332 -0.126950 0.001347
v 0.001731 -0.126950 0.002063
v 0.000921 -0.126950 0.002531
v 0.000000 -0.126950 0.002693
v -0.000921 -0.126950 0.002531
v -0.001731 -0.126950 0.002063
v -0.002332 -0.126950 0.001347
v -0.002652 -0.126950 0.000468
v -0.002652 -0.126950 -0.000468
v -0.002332 -0.126950 -0.001347
v -0.001731 -0.126950 -0.002063
v -0.000921 -0.126950 -0.002531
v -0.000000 0.126950 -0.001901
v 0.000000 0.126170 -0.002693
v 0.000650 0.126950 -0.001786
v 0.000921 0.126170 -0.002531
v 0.001222 0.126950 -0.001456
v 0.001731 0.126170 -0.002063
v 0.001646 0.126950 -0.000950
v 0.002332 0.126170 -0.001347
v 0.001872 0.126950 -0.000330
v 0.002652 0.126170 -0.000468
v 0.001872 0.126950 0.000330
v 0.002652 0.126170 0.000468
v 0.001646 0.126950 0.000950
v 0.002332 0.126170 0.001347
v 0.001222 0.126950 0.001456
v 0.001731 0.126170 0.002063
v 0.000650 0.126950 0.001786
v 0.000921 0.126170 0.002531
v 0.000000 0.126950 0.001901
v 0.000000 0.126170 0.002693
v -0.000650 0.126950 0.001786
v -0.000921 0.126170 0.002531
v -0.001222 0.126950 0.001456
v -0.001731 0.126170 0.002063
v -0.001646 0.126950 0.000950
v -0.002332 0.126170 0.001347
v -0.001872 0.126950 0.000330
v -0.002652 0.126170 0.000468
v -0.001872 0.126950 -0.000330
v -0.002652 0.126170 -0.000468
v -0.001646 0.126950 -0.000950
v -0.002332 0.126170 -0.001347
v -0.001222 0.126950 -0.001456
v -0.001731 0.126170 -0.002063
v -0.000650 0.126950 -0.001786
v -0.000921 0.126170 -0.002531
v 0.000000 -0.193329 -0.000679
v 0.000000 -0.192923 -0.001101
v 0.000377 -0.192923 -0.001034
v 0.000232 -0.193329 -0.000638
v 0.000708 -0.192923 -0.000843
v 0.000437 -0.193329 -0.000520
v 0.000953 -0.192923 -0.000550
v 0.000588 -0.193329 -0.000339
v 0.001084 -0.192923 -0.000191
v 0.000669 -0.193329 -0.000118
v 0.001084 -0.192923 0.000191
v 0.000669 -0.193329 0.000118
v 0.000953 -0.192923 0.000550
v 0.000588 -0.193329 0.000339
v 0.000708 -0.192923 0.000843
v 0.000437 -0.193329 0.000520
v 0.000377 -0.192923 0.001034
v 0.000232 -0.193329 0.000638
v 0.000000 -0.192923 0.001101
v 0.000000 -0.193329 0.000679
v -0.000376 -0.192923 0.001034
v -0.000232 -0.193329 0.000638
v -0.000707 -0.192923 0.000843
v -0.000436 -0.193329 0.000520
v -0.000953 -0.192923 0.000550
v -0.000588 -0.193329 0.000339
v -0.001084 -0.192923 0.000191
v -0.000668 -0.193329 0.000118
v -0.001084 -0.192923 -0.000191
v -0.000668 -0.193329 -0.000118
v -0.000953 -0.192923 -0.000550
v -0.000588 -0.193329 -0.000339
v -0.000707 -0.192923 -0.000843
v -0.000436 -0.193329 -0.000520
v -0.000376 -0.192923 -0.001034
v -0.000232 -0.193329 -0.000638
vt 0.0053 0.0161
vt 0.7914 0.0019
vt 0.7914 0.0161
vt 0.0053 0.2294
vt 0.7914 0.2152
vt 0.7914 0.2294
vt 0.0053 0.2152
vt 0.7914 0.2010
vt 0.0053 0.2010
vt 0.7914 0.1868
vt 0.0053 0.1868
vt 0.7914 0.1725
vt 0.0053 0.1725
vt 0.7914 0.1583
vt 0.0053 0.1583
vt 0.7914 0.1441
vt 0.0053 0.1441
vt 0.7914 0.1299
vt 0.0053 0.1299
vt 0.7914 0.1157
vt 0.0053 0.1157
vt 0.7914 0.1014
vt 0.0053 0.1014
vt 0.7914 0.0872
vt 0.0053 0.0872
vt 0.7914 0.0730
vt 0.0053 0.0730
vt 0.7914 0.0588
vt 0.0053 0.0588
vt 0.7914 0.0446
vt 0.0053 0.0446
vt 0.7914 0.0303
vt 0.0053 0.0303
vt 0.0053 0.2437
vt 0.7914 0.2437
vt 0.0035 0.2684
vt 0.0285 0.2775
vt 0.0152 0.2886
vt 0.9963 0.2294
vt 0.9963 0.0019
vt 0.9963 0.0161
vt 0.9963 0.1441
vt 0.9963 0.1583
vt 0.9963 0.0872
vt 0.9963 0.1868
vt 0.9963 0.1157
vt 0.9963 0.0446
vt 0.9963 0.2152
vt 0.9963 0.1299
vt 0.9963 0.2437
vt 0.9963 0.0730
vt 0.9963 0.2579
vt 0.7914 0.2579
vt 0.9963 0.1725
vt 0.9963 0.1014
vt 0.9963 0.0303
vt 0.9963 0.2010
vt 0.9963 0.0588
vt 0.0019 0.2579
vt 0.0019 0.2437
vt 0.0019 0.2294
vt 0.0019 0.2152
vt 0.0019 0.2010
vt 0.0019 0.1868
vt 0.0019 0.1725
vt 0.0019 0.1583
vt 0.0019 0.1441
vt 0.0019 0.1299
vt 0.0019 0.1157
vt 0.0019 0.1014
vt 0.0019 0.0872
vt 0.0019 0.0730
vt 0.0019 0.0588
vt 0.0019 0.0446
vt 0.0019 0.0303
vt 0.0019 0.0161
vt 0.0019 0.0019
vt 0.0053 0.0019
vt 0.0053 0.2579
vt 0.9981 0.2579
vt 0.9981 0.2437
vt 0.9981 0.2294
vt 0.9981 0.2152
vt 0.9981 0.2010
vt 0.9981 0.1725
vt 0.9981 0.1868
vt 0.9981 0.1441
vt 0.9981 0.1583
vt 0.9981 0.1299
vt 0.9981 0.1014
vt 0.9981 0.1157
vt 0.9981 0.0872
vt 0.9981 0.0730
vt 0.9981 0.0446
vt 0.9981 0.0588
vt 0.9981 0.0161
vt 0.9981 0.0303
vt 0.9981 0.0019
vt 0.0328 0.2689
vt 0.0401 0.2628
vt 0.0412 0.2689
vt 0.0065 0.2855
vt 0.0035 0.2819
vt 0.0019 0.2775
vt 0.0019 0.2728
vt 0.0065 0.2648
vt 0.0106 0.2625
vt 0.0152 0.2617
vt 0.0198 0.2625
vt 0.0239 0.2648
vt 0.0269 0.2684
vt 0.0285 0.2728
vt 0.0269 0.2819
vt 0.0239 0.2855
vt 0.0198 0.2878
vt 0.0106 0.2878
vt 0.0386 0.2710
vt 0.0370 0.2713
vt 0.0354 0.2710
vt 0.0339 0.2702
vt 0.0323 0.2673
vt 0.0323 0.2656
vt 0.0328 0.2641
vt 0.0339 0.2628
vt 0.0354 0.2620
vt 0.0370 0.2617
vt 0.0386 0.2620
vt 0.0412 0.2641
vt 0.0417 0.2656
vt 0.0417 0.2673
vt 0.0401 0.2702
vn -0.3175 0.3718 -0.8723
vn 0.0000 -0.0120 -0.9999
vn -0.3420 -0.0120 -0.9396
vn 0.5967 0.3718 -0.7111
vn 0.8660 -0.0120 -0.5000
vn 0.6427 -0.0120 -0.7660
vn 0.8039 0.3718 -0.4642
vn 0.9847 -0.0120 -0.1736
vn 0.9142 0.3718 -0.1612
vn 0.9847 -0.0120 0.1736
vn 0.9142 0.3718 0.1612
vn 0.8659 -0.0120 0.5000
vn 0.8039 0.3718 0.4642
vn 0.6427 -0.0120 0.7660
vn 0.5967 0.3718 0.7111
vn 0.3420 -0.0120 0.9396
vn 0.3175 0.3718 0.8723
vn 0.0000 -0.0120 0.9999
vn 0.0000 0.3718 0.9283
vn -0.3420 -0.0120 0.9396
vn -0.3175 0.3718 0.8723
vn -0.6427 -0.0120 0.7660
vn -0.5967 0.3718 0.7111
vn -0.8660 -0.0120 0.5000
vn -0.8039 0.3718 0.4642
vn -0.9847 -0.0120 0.1736
vn -0.9142 0.3718 0.1612
vn -0.9847 -0.0120 -0.1736
vn -0.9142 0.3718 -0.1612
vn -0.8660 -0.0120 -0.5000
vn -0.8039 0.3718 -0.4642
vn -0.6427 -0.0120 -0.7660
vn -0.5967 0.3718 -0.7111
vn 0.3175 0.3718 -0.8723
vn 0.3420 -0.0120 -0.9396
vn -0.2661 0.9102 -0.3171
vn 0.1416 0.9102 0.3891
vn 0.4077 0.9102 -0.0719
vn 0.5924 -0.3880 -0.7060
vn 0.0000 -0.3880 -0.9216
vn -0.3152 -0.3880 -0.8661
vn 0.3152 -0.3880 0.8661
vn 0.5924 -0.3880 0.7060
vn -0.7982 -0.3880 0.4608
vn 0.9076 -0.3880 0.1600
vn -0.3152 -0.3880 0.8661
vn -0.7982 -0.3880 -0.4608
vn 0.7982 -0.3880 -0.4608
vn 0.0000 -0.3880 0.9216
vn 0.3152 -0.3880 -0.8661
vn -0.9076 -0.3880 0.1600
vn 0.7982 -0.3880 0.4608
vn -0.5924 -0.3880 0.7060
vn -0.5924 -0.3880 -0.7060
vn 0.9076 -0.3880 -0.1600
vn -0.9076 -0.3880 -0.1600
vn 0.0000 0.9102 -0.4140
vn 0.1416 0.9102 -0.3891
vn 0.2661 0.9102 -0.3172
vn 0.3586 0.9102 -0.2070
vn 0.4077 0.9102 0.0719
vn 0.3586 0.9102 0.2070
vn 0.2661 0.9102 0.3172
vn 0.0000 0.9102 0.4141
vn -0.1416 0.9102 0.3890
vn -0.2661 0.9102 0.3172
vn -0.3586 0.9102 0.2070
vn -0.4077 0.9102 0.0719
vn -0.4077 0.9102 -0.0719
vn -0.3586 0.9102 -0.2070
vn -0.1416 0.9102 -0.3890
vn 0.0000 0.3718 -0.9283
vn 0.0000 -0.9129 -0.4081
vn 0.1396 -0.9129 -0.3836
vn 0.2624 -0.9129 -0.3127
vn 0.3535 -0.9129 -0.2041
vn 0.4020 -0.9129 -0.0708
vn 0.3535 -0.9129 0.2041
vn 0.4020 -0.9129 0.0709
vn 0.1396 -0.9129 0.3835
vn 0.2624 -0.9129 0.3127
vn 0.0000 -0.9129 0.4082
vn -0.2624 -0.9129 0.3127
vn -0.1396 -0.9129 0.3836
vn -0.3535 -0.9129 0.2040
vn -0.4020 -0.9129 0.0709
vn -0.3535 -0.9129 -0.2041
vn -0.4020 -0.9129 -0.0708
vn -0.1396 -0.9129 -0.3836
vn -0.2624 -0.9129 -0.3127
s 1
f 54/1/1 1/2/2 18/3/3
f 24/4/4 4/5/5 3/6/6
f 26/7/7 5/8/8 4/5/5
f 28/9/9 6/10/10 5/8/8
f 30/11/11 7/12/12 6/10/10
f 32/13/13 8/14/14 7/12/12
f 34/15/15 9/16/16 8/14/14
f 36/17/17 10/18/18 9/16/16
f 38/19/19 11/20/20 10/18/18
f 40/21/21 12/22/22 11/20/20
f 42/23/23 13/24/24 12/22/22
f 44/25/25 14/26/26 13/24/24
f 46/27/27 15/28/28 14/26/26
f 48/29/29 16/30/30 15/28/28
f 50/31/31 17/32/32 16/30/30
f 52/33/33 18/3/3 17/32/32
f 22/34/34 3/6/6 2/35/35
f 51/36/36 35/37/37 27/38/38
f 4/5/5 59/39/39 3/6/6
f 18/3/3 56/40/40 89/41/41
f 8/14/14 71/42/42 69/43/43
f 14/26/26 79/44/44 13/24/24
f 7/12/12 65/45/45 6/10/10
f 12/22/22 75/46/46 11/20/20
f 17/32/32 85/47/47 16/30/30
f 5/8/8 61/48/48 4/5/5
f 9/16/16 73/49/49 71/42/42
f 3/6/6 57/50/50 2/35/35
f 15/28/28 81/51/51 14/26/26
f 2/35/35 56/52/40 1/53/2
f 7/12/12 69/43/43 67/54/52
f 13/24/24 77/55/53 12/22/22
f 17/32/32 89/41/41 87/56/54
f 6/10/10 63/57/55 5/8/8
f 10/18/18 75/46/46 73/49/49
f 15/28/28 85/47/47 83/58/56
f 22/34/34 19/59/57 21/60/58
f 22/34/34 23/61/59 24/4/4
f 24/4/4 25/62/60 26/7/7
f 28/9/9 25/62/60 27/63/38
f 28/9/9 29/64/61 30/11/11
f 30/11/11 31/65/62 32/13/13
f 34/15/15 31/65/62 33/66/63
f 36/17/17 33/66/63 35/67/37
f 36/17/17 37/68/64 38/19/19
f 38/19/19 39/69/65 40/21/21
f 40/21/21 41/70/66 42/23/23
f 42/23/23 43/71/67 44/25/25
f 44/25/25 45/72/68 46/27/27
f 48/29/29 45/72/68 47/73/69
f 48/29/29 49/74/70 50/31/31
f 52/33/33 49/74/70 51/75/36
f 52/33/33 53/76/71 54/1/1
f 54/1/1 19/77/57 20/78/72
f 20/79/72 2/35/35 1/53/2
f 57/50/50 55/80/73 56/52/40
f 59/39/39 58/81/74 57/50/50
f 61/48/48 60/82/75 59/39/39
f 63/57/55 62/83/76 61/48/48
f 65/45/45 64/84/77 63/57/55
f 65/45/45 68/85/78 66/86/79
f 69/43/43 68/85/78 67/54/52
f 69/43/43 72/87/80 70/88/81
f 71/42/42 74/89/82 72/87/80
f 75/46/46 74/89/82 73/49/49
f 75/46/46 78/90/83 76/91/84
f 79/44/44 78/90/83 77/55/53
f 81/51/51 80/92/85 79/44/44
f 83/58/56 82/93/86 81/51/51
f 83/58/56 86/94/87 84/95/88
f 87/56/54 86/94/87 85/47/47
f 87/56/54 90/96/89 88/97/90
f 89/41/41 55/98/73 90/96/89
f 62/99/76 78/100/83 86/101/87
f 54/1/1 20/78/72 1/2/2
f 24/4/4 26/7/7 4/5/5
f 26/7/7 28/9/9 5/8/8
f 28/9/9 30/11/11 6/10/10
f 30/11/11 32/13/13 7/12/12
f 32/13/13 34/15/15 8/14/14
f 34/15/15 36/17/17 9/16/16
f 36/17/17 38/19/19 10/18/18
f 38/19/19 40/21/21 11/20/20
f 40/21/21 42/23/23 12/22/22
f 42/23/23 44/25/25 13/24/24
f 44/25/25 46/27/27 14/26/26
f 46/27/27 48/29/29 15/28/28
f 48/29/29 50/31/31 16/30/30
f 50/31/31 52/33/33 17/32/32
f 52/33/33 54/1/1 18/3/3
f 22/34/34 24/4/4 3/6/6
f 23/102/59 21/103/58 19/104/57
f 19/104/57 53/105/71 51/36/36
f 51/36/36 49/106/70 47/107/69
f 47/107/69 45/108/68 43/109/67
f 43/109/67 41/110/66 39/111/65
f 39/111/65 37/112/64 35/37/37
f 35/37/37 33/113/63 31/114/62
f 31/114/62 29/115/61 27/38/38
f 27/38/38 25/116/60 23/102/59
f 23/102/59 19/104/57 51/36/36
f 51/36/36 47/107/69 43/109/67
f 43/109/67 39/111/65 51/36/36
f 35/37/37 31/114/62 27/38/38
f 27/38/38 23/102/59 51/36/36
f 51/36/36 39/111/65 35/37/37
f 4/5/5 61/48/48 59/39/39
f 18/3/3 1/2/2 56/40/40
f 8/14/14 9/16/16 71/42/42
f 14/26/26 81/51/51 79/44/44
f 7/12/12 67/54/52 65/45/45
f 12/22/22 77/55/53 75/46/46
f 17/32/32 87/56/54 85/47/47
f 5/8/8 63/57/55 61/48/48
f 9/16/16 10/18/18 73/49/49
f 3/6/6 59/39/39 57/50/50
f 15/28/28 83/58/56 81/51/51
f 2/35/35 57/50/50 56/52/40
f 7/12/12 8/14/14 69/43/43
f 13/24/24 79/44/44 77/55/53
f 17/32/32 18/3/3 89/41/41
f 6/10/10 65/45/45 63/57/55
f 10/18/18 11/20/20 75/46/46
f 15/28/28 16/30/30 85/47/47
f 22/34/34 20/79/72 19/59/57
f 22/34/34 21/60/58 23/61/59
f 24/4/4 23/61/59 25/62/60
f 28/9/9 26/7/7 25/62/60
f 28/9/9 27/63/38 29/64/61
f 30/11/11 29/64/61 31/65/62
f 34/15/15 32/13/13 31/65/62
f 36/17/17 34/15/15 33/66/63
f 36/17/17 35/67/37 37/68/64
f 38/19/19 37/68/64 39/69/65
f 40/21/21 39/69/65 41/70/66
f 42/23/23 41/70/66 43/71/67
f 44/25/25 43/71/67 45/72/68
f 48/29/29 46/27/27 45/72/68
f 48/29/29 47/73/69 49/74/70
f 52/33/33 50/31/31 49/74/70
f 52/33/33 51/75/36 53/76/71
f 54/1/1 53/76/71 19/77/57
f 20/79/72 22/34/34 2/35/35
f 57/50/50 58/81/74 55/80/73
f 59/39/39 60/82/75 58/81/74
f 61/48/48 62/83/76 60/82/75
f 63/57/55 64/84/77 62/83/76
f 65/45/45 66/86/79 64/84/77
f 65/45/45 67/54/52 68/85/78
f 69/43/43 70/88/81 68/85/78
f 69/43/43 71/42/42 72/87/80
f 71/42/42 73/49/49 74/89/82
f 75/46/46 76/91/84 74/89/82
f 75/46/46 77/55/53 78/90/83
f 79/44/44 80/92/85 78/90/83
f 81/51/51 82/93/86 80/92/85
f 83/58/56 84/95/88 82/93/86
f 83/58/56 85/47/47 86/94/87
f 87/56/54 88/97/90 86/94/87
f 87/56/54 89/41/41 90/96/89
f 89/41/41 56/40/40 55/98/73
f 90/117/89 55/118/73 58/119/74
f 58/119/74 60/120/75 62/99/76
f 62/99/76 64/121/77 66/122/79
f 66/122/79 68/123/78 70/124/81
f 70/124/81 72/125/80 74/126/82
f 74/126/82 76/127/84 78/100/83
f 78/100/83 80/128/85 82/129/86
f 82/129/86 84/130/88 86/101/87
f 86/101/87 88/131/90 90/117/89
f 90/117/89 58/119/74 62/99/76
f 62/99/76 66/122/79 70/124/81
f 70/124/81 74/126/82 78/100/83
f 78/100/83 82/129/86 86/101/87
f 86/101/87 90/117/89 62/99/76
f 62/99/76 70/124/81 78/100/83
